# xmcd
#
# Track frame offsets:
#	150
#	12782
#	29282
#	41002
#	60285
#	73227
#	90810
#	105420
#	124430
#	142272
#	162085
#	178347
#	190367
#	203587
#	216065
#
# Disc length: 3150 seconds
#
# Revision: 0
# Processed by: cddbd v1.5.1PL2 Copyright (c) Steve Scherf et al.
# Submitted via: audiograbber 1.83.01
#
DISCID=d00c4c0f
DTITLE=Music Maestro - MM6097
DYEAR=1900
DGENRE=Karaoke
TTITLE0=Keith, Toby - You Ain't Much Fun
TTITLE1=Mattea, Kathy - Clown In Your Rodeo
TTITLE2=Kershaw, Sammy - If You're Gonna Walk I'm Gonna Crawl
TTITLE3=Raye, Collin - If I Were You
TTITLE4=Chesney, Kenny - Fall In Love
TTITLE5=Lawrence, Tracy - Texas Tornado
TTITLE6=Dunn, Holly - I Am Who I Am
TTITLE7=McBride, Martina - Where I Used To Have A Heart
TTITLE8=Berry, John - Standing On The Edge Of Goodbye
TTITLE9=Trevino, Rick - Looking For The Light
TTITLE10=Brokop, Lisa - One Of Those Nights
TTITLE11=Shenandoah - Darned If I Don't (Danged If I Do)
TTITLE12=Foster, Radney - Willin' To Walk
TTITLE13=Stewart, Larry - Rockin' The Rock
TTITLE14=Anderson, John - Mississippi Moon
EXTD=
EXTT0=
EXTT1=
EXTT2=
EXTT3=
EXTT4=
EXTT5=
EXTT6=
EXTT7=
EXTT8=
EXTT9=
EXTT10=
EXTT11=
EXTT12=
EXTT13=
EXTT14=
PLAYORDER=
